<svg width="26" height="20" viewBox="0 0 26 20" fill="none" xmlns="http://www.w3.org/2000/svg">
<path d="M25.4572 3.08479C25.1484 1.87791 24.2934 0.931362 23.1921 0.596762C21.1643 2.85185e-05 13.0124 2.86733e-05 13.0124 2.86733e-05C13.0124 2.86733e-05 4.87598 -0.014286 2.82704 0.596762C1.73146 0.932257 0.87238 1.87791 0.566786 3.08479C0.182356 5.37242 -0.00864034 7.68778 0.000299898 10.0139C-0.00376385 12.3248 0.186419 14.6366 0.566786 16.9099C0.87238 18.1168 1.73146 19.0633 2.82704 19.4033C4.85485 20 13.0124 20 13.0124 20C13.0124 20 21.144 20 23.1921 19.4033C24.2934 19.0633 25.1484 18.1177 25.4572 16.9099C25.8303 14.6366 26.0123 12.3248 25.9993 10.0139C26.0123 7.68778 25.8343 5.37242 25.4572 3.08479ZM10.4084 14.2966V5.71239L17.194 10.0139L10.4084 14.2966Z" fill="white"/>
</svg>
